<svg width="17" height="17" viewBox="0 0 17 17" fill="none" xmlns="http://www.w3.org/2000/svg">
<circle cx="8.30769" cy="8.30769" r="8.30769" fill="#161A23"/>
<path d="M13.0716 8.86395C13.0243 8.81655 12.965 8.78292 12.9 8.76668C12.835 8.75044 12.7669 8.75219 12.7028 8.77176C11.9997 8.98432 11.2521 9.00215 10.5396 8.82333C9.82717 8.64451 9.17658 8.27575 8.65717 7.75634C8.13776 7.23693 7.769 6.58633 7.59018 5.87387C7.41136 5.16142 7.42918 4.41379 7.64174 3.71066C7.66147 3.6466 7.66336 3.57836 7.64721 3.5133C7.63106 3.44823 7.59747 3.38881 7.55007 3.3414C7.50267 3.294 7.44324 3.26042 7.37817 3.24426C7.31311 3.22811 7.24488 3.23 7.18081 3.24973C6.2087 3.54751 5.35528 4.14431 4.74199 4.9552C4.20565 5.66728 3.87849 6.51481 3.79728 7.40258C3.71607 8.29034 3.88401 9.18317 4.28225 9.98075C4.68049 10.7783 5.29324 11.4491 6.05166 11.9176C6.81009 12.3861 7.68413 12.6339 8.5756 12.633C9.61564 12.6362 10.628 12.2981 11.4574 11.6706C12.2683 11.0573 12.8651 10.2039 13.1629 9.23177C13.1824 9.16794 13.1842 9.10002 13.1681 9.03524C13.152 8.97046 13.1187 8.91126 13.0716 8.86395ZM11.014 11.0815C10.2329 11.6698 9.26567 11.9561 8.29026 11.8878C7.31485 11.8195 6.39694 11.4012 5.7055 10.7098C5.01407 10.0184 4.59565 9.10056 4.52727 8.12515C4.45889 7.14975 4.74516 6.18247 5.33337 5.40138C5.7166 4.8953 6.21204 4.48506 6.78071 4.20295C6.74832 4.43029 6.73199 4.65964 6.73185 4.88928C6.7332 6.16025 7.23868 7.37878 8.13739 8.27749C9.03611 9.1762 10.2546 9.68169 11.5256 9.68303C11.7557 9.68296 11.9855 9.66663 12.2133 9.63417C11.9309 10.2029 11.5204 10.6984 11.014 11.0815Z" fill="white"/>
</svg>
