<svg width="18" height="18" viewBox="0 0 18 18" fill="none" xmlns="http://www.w3.org/2000/svg">
<path d="M14.9941 14.2148H10.7233C10.3067 14.2148 9.96777 14.5591 9.96777 14.9824C9.96777 15.4065 10.3067 15.7499 10.7233 15.7499H14.9941C15.4107 15.7499 15.7496 15.4065 15.7496 14.9824C15.7496 14.5591 15.4107 14.2148 14.9941 14.2148" fill="#979797"/>
<path d="M7.73177 5.17697L11.7787 8.44704C11.8763 8.52525 11.8929 8.66875 11.8168 8.76873L7.01906 15.0202C6.71746 15.4064 6.27301 15.6249 5.79681 15.633L3.17772 15.6652C3.03804 15.6668 2.91581 15.5701 2.88406 15.4314L2.28882 12.8434C2.18564 12.3677 2.28882 11.8759 2.59041 11.497L7.41192 5.21567C7.4897 5.11489 7.63335 5.09716 7.73177 5.17697" fill="#979797"/>
<path d="M13.59 6.49908L12.8098 7.473C12.7312 7.57217 12.59 7.5883 12.4923 7.50928C11.5439 6.74175 9.1153 4.77213 8.44148 4.22632C8.34306 4.14569 8.32957 4.00219 8.40893 3.90221L9.16133 2.96779C9.84388 2.089 11.0344 2.00838 11.9947 2.7743L13.0979 3.65309C13.5503 4.00783 13.8519 4.47544 13.9551 4.96724C14.0741 5.50822 13.9471 6.03953 13.59 6.49908" fill="#979797"/>
</svg>
