<svg width="24" height="24" viewBox="0 0 24 24" fill="none" xmlns="http://www.w3.org/2000/svg">
<g clip-path="url(#clip0_6418_3485)">
<path d="M3.29504 15.7121C3.68565 16.1026 4.31879 16.1025 4.70926 15.7119C5.09973 15.3212 5.09964 14.6881 4.70903 14.2976L2.41436 12.0038L5.88315 8.53497C7.97697 6.44116 10.9494 5.58803 13.7939 6.18737C14.3343 6.30123 14.8647 5.95544 14.9785 5.41501C15.0924 4.87459 14.7466 4.3442 14.2062 4.23034C10.707 3.49309 7.0458 4.54384 4.46889 7.12075L0.292887 11.2967C-0.0976758 11.6873 -0.0976289 12.3206 0.293027 12.7111L3.29504 15.7121Z" fill="#1E293B"/>
<path d="M23.7092 11.2957L20.7072 8.29474C20.3165 7.90427 19.6834 7.90437 19.2929 8.29497C18.9025 8.68558 18.9026 9.31873 19.2932 9.70919L21.5878 12.0031L18.119 15.4719C16.0252 17.5657 13.0528 18.4188 10.2083 17.8195C9.66789 17.7056 9.1375 18.0514 9.02364 18.5918C8.90978 19.1322 9.25558 19.6626 9.796 19.7765C13.2952 20.5137 16.9564 19.463 19.5333 16.8861L23.7093 12.7101C24.0999 12.3195 24.0998 11.6862 23.7092 11.2957Z" fill="#1E293B"/>
<path fill-rule="evenodd" clip-rule="evenodd" d="M8 12.25C8 9.90279 9.90279 8 12.25 8C14.5972 8 16.5 9.90279 16.5 12.25C16.5 14.5972 14.5972 16.5 12.25 16.5C9.90279 16.5 8 14.5972 8 12.25ZM12.25 9.7C10.8417 9.7 9.7 10.8417 9.7 12.25C9.7 13.6583 10.8417 14.8 12.25 14.8C13.6583 14.8 14.8 13.6583 14.8 12.25C14.8 10.8417 13.6583 9.7 12.25 9.7Z" fill="#1E293B"/>
</g>
<defs>
<clipPath id="clip0_6418_3485">
<rect width="24" height="24" fill="white"/>
</clipPath>
</defs>
</svg>
