<svg width="24" height="24" viewBox="0 0 24 24" fill="none" xmlns="http://www.w3.org/2000/svg">
<path d="M3.29504 15.7097C3.68565 16.1001 4.31879 16.1 4.70926 15.7094C5.09973 15.3188 5.09964 14.6857 4.70903 14.2952L2.41436 12.0013L5.88315 8.53253C7.97697 6.43871 10.9494 5.58559 13.7939 6.18493C14.3343 6.29879 14.8647 5.95299 14.9785 5.41257C15.0924 4.87215 14.7466 4.34176 14.2062 4.2279C10.707 3.49065 7.0458 4.5414 4.46889 7.11831L0.292887 11.2943C-0.0976758 11.6849 -0.0976289 12.3182 0.293027 12.7086L3.29504 15.7097Z" fill="#1E293B"/>
<path d="M23.7092 11.2933L20.7072 8.2923C20.3165 7.90183 19.6834 7.90192 19.2929 8.29253C18.9025 8.68314 18.9026 9.31628 19.2932 9.70675L21.5878 12.0006L18.119 15.4694C16.0252 17.5633 13.0528 18.4164 10.2083 17.817C9.66789 17.7032 9.1375 18.049 9.02364 18.5894C8.90978 19.1298 9.25558 19.6602 9.796 19.7741C13.2952 20.5113 16.9564 19.4606 19.5333 16.8836L23.7093 12.7076C24.0999 12.317 24.0998 11.6838 23.7092 11.2933Z" fill="#1E293B"/>
<path d="M7.00195 12.0009C7.00195 12.5532 7.44966 13.0009 8.00194 13.0009C8.55422 13.0009 9.00192 12.5532 9.00192 12.0009C9.00192 10.3442 10.3452 9.00095 12.0019 9.00095C12.5542 9.00095 13.0019 8.55324 13.0019 8.00096C13.0019 7.44868 12.5542 7.00098 12.0019 7.00098C9.24066 7.00093 7.00195 9.23963 7.00195 12.0009Z" fill="#1E293B"/>
<path d="M15.001 12.001C15.001 13.6577 13.6577 15.001 12.001 15.001C11.4487 15.001 11.001 15.4487 11.001 16.001C11.001 16.5533 11.4487 17.001 12.001 17.001C14.7622 17.001 17.001 14.7623 17.001 12.001C17.001 11.4487 16.5533 11.001 16.001 11.001C15.4487 11.001 15.001 11.4487 15.001 12.001Z" fill="#1E293B"/>
<path d="M23.7071 0.292887C23.3166 -0.097629 22.6834 -0.097629 22.2929 0.292887L0.292887 22.2929C-0.097629 22.6834 -0.097629 23.3166 0.292887 23.7071C0.683403 24.0976 1.31659 24.0976 1.70711 23.7071L23.7071 1.70711C24.0977 1.31659 24.0977 0.683403 23.7071 0.292887Z" fill="#1E293B"/>
</svg>
