<svg width="17" height="17" viewBox="0 0 17 17" fill="none" xmlns="http://www.w3.org/2000/svg">
<circle cx="8.30769" cy="8.30769" r="8.30769" fill="white"/>
<path d="M7.96139 4.49979V3.46133C7.96139 3.36952 7.99786 3.28148 8.06277 3.21656C8.12769 3.15164 8.21574 3.11517 8.30754 3.11517C8.39935 3.11517 8.48739 3.15164 8.55231 3.21656C8.61723 3.28148 8.6537 3.36952 8.6537 3.46133V4.49979C8.6537 4.59159 8.61723 4.67964 8.55231 4.74456C8.48739 4.80947 8.39935 4.84594 8.30754 4.84594C8.21574 4.84594 8.12769 4.80947 8.06277 4.74456C7.99786 4.67964 7.96139 4.59159 7.96139 4.49979ZM11.0768 8.30748C11.0768 8.85518 10.9144 9.39059 10.6101 9.84598C10.3058 10.3014 9.87329 10.6563 9.36728 10.8659C8.86127 11.0755 8.30447 11.1304 7.76729 11.0235C7.23011 10.9167 6.73668 10.6529 6.3494 10.2656C5.96212 9.87834 5.69837 9.38491 5.59152 8.84773C5.48467 8.31055 5.53951 7.75375 5.74911 7.24774C5.9587 6.74173 6.31364 6.30924 6.76904 6.00495C7.22444 5.70066 7.75984 5.53825 8.30754 5.53825C9.04174 5.53905 9.74564 5.83107 10.2648 6.35022C10.784 6.86938 11.076 7.57328 11.0768 8.30748ZM10.3845 8.30748C10.3845 7.8967 10.2627 7.49515 10.0344 7.1536C9.80623 6.81206 9.48185 6.54585 9.10235 6.38865C8.72284 6.23146 8.30524 6.19033 7.90235 6.27047C7.49947 6.3506 7.1294 6.54841 6.83894 6.83887C6.54847 7.12934 6.35067 7.49941 6.27053 7.90229C6.19039 8.30518 6.23152 8.72278 6.38872 9.10229C6.54591 9.48179 6.81212 9.80616 7.15367 10.0344C7.49521 10.2626 7.89677 10.3844 8.30754 10.3844C8.8582 10.3838 9.38614 10.1648 9.77552 9.77546C10.1649 9.38608 10.3839 8.85814 10.3845 8.30748ZM5.29341 5.78315C5.35836 5.84811 5.44645 5.8846 5.53831 5.8846C5.63017 5.8846 5.71826 5.84811 5.78322 5.78315C5.84817 5.7182 5.88466 5.63011 5.88466 5.53825C5.88466 5.44639 5.84817 5.3583 5.78322 5.29335L5.09091 4.60104C5.02595 4.53609 4.93786 4.4996 4.846 4.4996C4.75415 4.4996 4.66605 4.53609 4.6011 4.60104C4.53615 4.66599 4.49966 4.75409 4.49966 4.84594C4.49966 4.9378 4.53615 5.02589 4.6011 5.09085L5.29341 5.78315ZM5.29341 10.8318L4.6011 11.5241C4.53615 11.5891 4.49966 11.6772 4.49966 11.769C4.49966 11.8609 4.53615 11.949 4.6011 12.0139C4.66605 12.0789 4.75415 12.1154 4.846 12.1154C4.93786 12.1154 5.02595 12.0789 5.09091 12.0139L5.78322 11.3216C5.81538 11.2895 5.84089 11.2513 5.85829 11.2093C5.8757 11.1672 5.88466 11.1222 5.88466 11.0767C5.88466 11.0312 5.8757 10.9862 5.85829 10.9442C5.84089 10.9022 5.81538 10.864 5.78322 10.8318C5.75105 10.7996 5.71287 10.7741 5.67085 10.7567C5.62883 10.7393 5.58379 10.7304 5.53831 10.7304C5.49283 10.7304 5.44779 10.7393 5.40577 10.7567C5.36375 10.7741 5.32557 10.7996 5.29341 10.8318ZM11.0768 5.8844C11.1222 5.88444 11.1673 5.87552 11.2093 5.85814C11.2513 5.84077 11.2895 5.81529 11.3217 5.78315L12.014 5.09085C12.0789 5.02589 12.1154 4.9378 12.1154 4.84594C12.1154 4.75409 12.0789 4.66599 12.014 4.60104C11.949 4.53609 11.8609 4.4996 11.7691 4.4996C11.6772 4.4996 11.5891 4.53609 11.5242 4.60104L10.8319 5.29335C10.7834 5.34176 10.7504 5.40346 10.737 5.47064C10.7236 5.53783 10.7305 5.60747 10.7567 5.67075C10.7829 5.73404 10.8273 5.78812 10.8843 5.82615C10.9413 5.86419 11.0083 5.88446 11.0768 5.8844ZM11.3217 10.8318C11.2567 10.7669 11.1686 10.7304 11.0768 10.7304C10.9849 10.7304 10.8968 10.7669 10.8319 10.8318C10.7669 10.8968 10.7304 10.9849 10.7304 11.0767C10.7304 11.1686 10.7669 11.2567 10.8319 11.3216L11.5242 12.0139C11.5563 12.0461 11.5945 12.0716 11.6365 12.089C11.6786 12.1064 11.7236 12.1154 11.7691 12.1154C11.8146 12.1154 11.8596 12.1064 11.9016 12.089C11.9436 12.0716 11.9818 12.0461 12.014 12.0139C12.0461 11.9818 12.0717 11.9436 12.0891 11.9016C12.1065 11.8595 12.1154 11.8145 12.1154 11.769C12.1154 11.7235 12.1065 11.6785 12.0891 11.6365C12.0717 11.5945 12.0461 11.5563 12.014 11.5241L11.3217 10.8318ZM4.846 8.30748C4.846 8.21568 4.80953 8.12763 4.74462 8.06271C4.6797 7.9978 4.59166 7.96133 4.49985 7.96133H3.46139C3.36958 7.96133 3.28154 7.9978 3.21662 8.06271C3.1517 8.12763 3.11523 8.21568 3.11523 8.30748C3.11523 8.39929 3.1517 8.48733 3.21662 8.55225C3.28154 8.61717 3.36958 8.65364 3.46139 8.65364H4.49985C4.59166 8.65364 4.6797 8.61717 4.74462 8.55225C4.80953 8.48733 4.846 8.39929 4.846 8.30748ZM8.30754 11.769C8.21574 11.769 8.12769 11.8055 8.06277 11.8704C7.99786 11.9353 7.96139 12.0234 7.96139 12.1152V13.1536C7.96139 13.2454 7.99786 13.3335 8.06277 13.3984C8.12769 13.4633 8.21574 13.4998 8.30754 13.4998C8.39935 13.4998 8.48739 13.4633 8.55231 13.3984C8.61723 13.3335 8.6537 13.2454 8.6537 13.1536V12.1152C8.6537 12.0234 8.61723 11.9353 8.55231 11.8704C8.48739 11.8055 8.39935 11.769 8.30754 11.769ZM13.1537 7.96133H12.1152C12.0234 7.96133 11.9354 7.9978 11.8705 8.06271C11.8056 8.12763 11.7691 8.21568 11.7691 8.30748C11.7691 8.39929 11.8056 8.48733 11.8705 8.55225C11.9354 8.61717 12.0234 8.65364 12.1152 8.65364H13.1537C13.2455 8.65364 13.3335 8.61717 13.3985 8.55225C13.4634 8.48733 13.4999 8.39929 13.4999 8.30748C13.4999 8.21568 13.4634 8.12763 13.3985 8.06271C13.3335 7.9978 13.2455 7.96133 13.1537 7.96133Z" fill="#2F6EFF"/>
</svg>
