<svg width="74" height="41" viewBox="0 0 74 41" fill="none" xmlns="http://www.w3.org/2000/svg">
<path d="M2.41777 20V1.99531H10.0826C11.2658 1.99531 12.2603 2.16678 13.0663 2.50973C13.8893 2.85268 14.5066 3.3671 14.9182 4.05299C15.3469 4.72174 15.5612 5.53623 15.5612 6.49648C15.5612 7.49103 15.2954 8.33125 14.7638 9.01714C14.2323 9.70303 13.4864 10.1746 12.5261 10.4318L12.5004 9.91737C13.3063 10.0888 14.0094 10.3975 14.6095 10.8433C15.2097 11.272 15.6727 11.8122 15.9985 12.4638C16.3414 13.0982 16.5129 13.827 16.5129 14.65C16.5129 15.5245 16.3671 16.2962 16.0756 16.9649C15.8013 17.6337 15.3897 18.191 14.841 18.6368C14.2923 19.0826 13.6407 19.4256 12.8862 19.6656C12.1317 19.8885 11.2829 20 10.3398 20H2.41777ZM5.68434 16.9906H10.1855C10.82 16.9906 11.3515 16.8963 11.7802 16.7077C12.226 16.5191 12.5604 16.2447 12.7833 15.8846C13.0234 15.5074 13.1434 15.0616 13.1434 14.5472C13.1434 14.067 13.0148 13.6555 12.7576 13.3125C12.5175 12.9696 12.166 12.7124 11.703 12.5409C11.2401 12.3523 10.6914 12.258 10.0569 12.258H5.68434V16.9906ZM5.68434 9.37723H9.77397C10.2712 9.37723 10.6999 9.28292 11.06 9.0943C11.4373 8.90568 11.7288 8.64847 11.9345 8.32267C12.1403 7.99687 12.2432 7.61963 12.2432 7.19095C12.2432 6.50506 12.0117 5.97349 11.5487 5.59625C11.0857 5.20186 10.4084 5.00467 9.51676 5.00467H5.68434V9.37723ZM25.1465 20L17.9446 1.99531H21.597L25.6095 12.3094C25.8152 12.841 25.9953 13.3211 26.1496 13.7498C26.3039 14.1613 26.4411 14.5386 26.5611 14.8815C26.6812 15.2245 26.7841 15.5588 26.8698 15.8846C26.9727 16.2104 27.0841 16.5534 27.2042 16.9135H26.484C26.604 16.4505 26.7326 15.9961 26.8698 15.5503C27.007 15.0873 27.1613 14.5986 27.3328 14.0842C27.5214 13.5698 27.7443 12.9782 28.0015 12.3094L31.7568 1.99531H35.4349L28.1816 20H25.1465ZM38.2865 20V1.99531H41.4502L48.009 12.6695L46.1571 12.6438L52.7931 1.99531H55.8025V20H52.4845V13.2354C52.4845 11.6921 52.5188 10.3032 52.5874 9.06858C52.6731 7.83397 52.8103 6.60794 52.9989 5.39048L53.4104 6.49648L47.829 15.113H46.1314L40.73 6.57365L41.0901 5.39048C41.2787 6.53935 41.4073 7.72252 41.4759 8.93998C41.5616 10.1403 41.6045 11.5721 41.6045 13.2354V20H38.2865Z" fill="#020F2D"/>
<path d="M27.0752 40.1402C25.7891 40.1402 24.5974 39.9087 23.4999 39.4457C22.4025 38.9828 21.4423 38.3397 20.6192 37.5167C19.8133 36.6764 19.1874 35.6905 18.7416 34.5588C18.2957 33.427 18.0728 32.1924 18.0728 30.8549C18.0728 29.5174 18.2957 28.2828 18.7416 27.1511C19.1874 26.0194 19.8133 25.042 20.6192 24.2189C21.4423 23.3787 22.4025 22.7271 23.4999 22.2641C24.5974 21.8011 25.7891 21.5697 27.0752 21.5697C28.3784 21.5697 29.5787 21.8011 30.6761 22.2641C31.7735 22.7271 32.7252 23.3787 33.5311 24.2189C34.337 25.0591 34.9629 26.0451 35.4088 27.1768C35.8546 28.2914 36.0775 29.5174 36.0775 30.8549C36.0775 32.1753 35.8546 33.4013 35.4088 34.533C34.9629 35.6648 34.337 36.6507 33.5311 37.4909C32.7252 38.3312 31.7735 38.9828 30.6761 39.4457C29.5787 39.9087 28.3784 40.1402 27.0752 40.1402ZM27.0752 36.9508C27.8982 36.9508 28.6441 36.8051 29.3129 36.5135C29.9988 36.2049 30.5904 35.7762 31.0876 35.2275C31.5849 34.6616 31.9707 34.01 32.2451 33.2727C32.5366 32.5354 32.6823 31.7294 32.6823 30.8549C32.6823 29.9804 32.5366 29.1745 32.2451 28.4372C31.9707 27.6998 31.5849 27.0568 31.0876 26.5081C30.5904 25.9422 29.9988 25.5135 29.3129 25.222C28.6441 24.9134 27.8982 24.7591 27.0752 24.7591C26.2692 24.7591 25.5233 24.9134 24.8374 25.222C24.1515 25.5135 23.56 25.9336 23.0627 26.4824C22.5654 27.0311 22.1796 27.6741 21.9052 28.4114C21.6309 29.1488 21.4937 29.9633 21.4937 30.8549C21.4937 31.7294 21.6309 32.5439 21.9052 33.2984C22.1796 34.0358 22.5654 34.6788 23.0627 35.2275C23.56 35.7762 24.1515 36.2049 24.8374 36.5135C25.5233 36.8051 26.2692 36.9508 27.0752 36.9508ZM39.7034 39.883V21.8783H42.7127L53.1554 35.9477L52.5896 36.0506C52.521 35.5704 52.461 35.0817 52.4095 34.5845C52.3581 34.0701 52.3066 33.5385 52.2552 32.9898C52.2209 32.4411 52.1866 31.8666 52.1523 31.2665C52.1352 30.6663 52.118 30.0404 52.1009 29.3888C52.0837 28.7201 52.0752 28.017 52.0752 27.2797V21.8783H55.3932V39.883H52.3324L41.8382 26.0194L42.5069 25.8393C42.5927 26.7996 42.6613 27.6227 42.7127 28.3086C42.7813 28.9773 42.8327 29.5603 42.867 30.0576C42.9013 30.5377 42.9271 30.9407 42.9442 31.2665C42.9785 31.5923 42.9956 31.8923 42.9956 32.1667C43.0128 32.4239 43.0214 32.6725 43.0214 32.9126V39.883H39.7034ZM60.2249 39.883V21.8783H72.0051V24.9134H63.5172V36.8479H72.108V39.883H60.2249ZM61.7681 32.1667V29.1831H70.6933V32.1667H61.7681Z" fill="url(#paint0_linear_12004_15385)"/>
<defs>
<linearGradient id="paint0_linear_12004_15385" x1="17.7831" y1="28.431" x2="72.6903" y2="38.2644" gradientUnits="userSpaceOnUse">
<stop stop-color="#B5852D"/>
<stop offset="0.5" stop-color="#E5BB56"/>
<stop offset="1" stop-color="#AF7D25"/>
</linearGradient>
</defs>
</svg>
