<svg width="20" height="20" viewBox="0 0 20 20" fill="none" xmlns="http://www.w3.org/2000/svg">
<path d="M11.8751 6.25002C11.8751 6.08426 11.941 5.92529 12.0582 5.80808C12.1754 5.69087 12.3344 5.62502 12.5001 5.62502H19.3751C19.5409 5.62502 19.6998 5.69087 19.8171 5.80808C19.9343 5.92529 20.0001 6.08426 20.0001 6.25002C20.0001 6.41578 19.9343 6.57475 19.8171 6.69196C19.6998 6.80917 19.5409 6.87502 19.3751 6.87502H12.5001C12.3344 6.87502 12.1754 6.80917 12.0582 6.69196C11.941 6.57475 11.8751 6.41578 11.8751 6.25002ZM19.3751 9.37502H12.5001C12.3344 9.37502 12.1754 9.44087 12.0582 9.55808C11.941 9.67529 11.8751 9.83426 11.8751 10C11.8751 10.1658 11.941 10.3247 12.0582 10.442C12.1754 10.5592 12.3344 10.625 12.5001 10.625H19.3751C19.5409 10.625 19.6998 10.5592 19.8171 10.442C19.9343 10.3247 20.0001 10.1658 20.0001 10C20.0001 9.83426 19.9343 9.67529 19.8171 9.55808C19.6998 9.44087 19.5409 9.37502 19.3751 9.37502ZM19.3751 13.125H14.3751C14.2094 13.125 14.0504 13.1909 13.9332 13.3081C13.816 13.4253 13.7501 13.5843 13.7501 13.75C13.7501 13.9158 13.816 14.0747 13.9332 14.192C14.0504 14.3092 14.2094 14.375 14.3751 14.375H19.3751C19.5409 14.375 19.6998 14.3092 19.8171 14.192C19.9343 14.0747 20.0001 13.9158 20.0001 13.75C20.0001 13.5843 19.9343 13.4253 19.8171 13.3081C19.6998 13.1909 19.5409 13.125 19.3751 13.125ZM11.8556 14.8438C11.876 14.9233 11.8806 15.006 11.869 15.0873C11.8575 15.1686 11.83 15.2468 11.7882 15.3175C11.7464 15.3881 11.6911 15.4499 11.6255 15.4991C11.5598 15.5484 11.4851 15.5843 11.4056 15.6047C11.3546 15.6184 11.3021 15.6253 11.2493 15.625C11.1107 15.6251 10.976 15.5791 10.8664 15.4942C10.7568 15.4094 10.6785 15.2905 10.6439 15.1563C10.1626 13.286 8.27355 11.875 6.24933 11.875C4.22511 11.875 2.33605 13.2852 1.8548 15.1563C1.81336 15.3168 1.70983 15.4544 1.56698 15.5386C1.42413 15.6229 1.25366 15.6469 1.09308 15.6055C0.9325 15.564 0.794959 15.4605 0.710714 15.3177C0.626469 15.1748 0.602421 15.0043 0.643862 14.8438C1.08058 13.1477 2.35011 11.7742 3.96105 11.0938C3.34076 10.616 2.88557 9.95607 2.65932 9.20652C2.43306 8.45697 2.4471 7.6554 2.69944 6.91423C2.95179 6.17305 3.4298 5.52946 4.06643 5.07369C4.70306 4.61793 5.46638 4.37286 6.24933 4.37286C7.03228 4.37286 7.7956 4.61793 8.43223 5.07369C9.06886 5.52946 9.54687 6.17305 9.79922 6.91423C10.0516 7.6554 10.0656 8.45697 9.83934 9.20652C9.61309 9.95607 9.1579 10.616 8.53761 11.0938C10.1493 11.7742 11.4189 13.1477 11.8556 14.8438ZM6.25011 10.625C6.74457 10.625 7.22791 10.4784 7.63904 10.2037C8.05016 9.92899 8.37059 9.53854 8.55981 9.08173C8.74903 8.62491 8.79854 8.12224 8.70208 7.63729C8.60561 7.15234 8.36751 6.70688 8.01788 6.35725C7.66825 6.00762 7.22279 5.76952 6.73784 5.67305C6.25288 5.57659 5.75022 5.6261 5.2934 5.81532C4.83659 6.00454 4.44614 6.32497 4.17144 6.73609C3.89673 7.14722 3.75011 7.63056 3.75011 8.12502C3.75011 8.78806 4.0135 9.42394 4.48234 9.89278C4.95119 10.3616 5.58707 10.625 6.25011 10.625Z" fill="#757575"/>
</svg>
