<svg width="20" height="20" viewBox="0 0 20 20" fill="none" xmlns="http://www.w3.org/2000/svg">
<path d="M19.1252 11.75C19.0596 11.7992 18.9849 11.8351 18.9053 11.8554C18.8258 11.8758 18.7431 11.8803 18.6618 11.8687C18.5806 11.8571 18.5024 11.8296 18.4318 11.7878C18.3612 11.746 18.2995 11.6907 18.2502 11.625C17.8735 11.1186 17.3832 10.7078 16.8187 10.4256C16.2542 10.1433 15.6313 9.99755 15.0002 10C14.8773 9.99999 14.7572 9.96374 14.6547 9.89579C14.5523 9.82784 14.4722 9.7312 14.4245 9.61797C14.392 9.54107 14.3753 9.45846 14.3753 9.375C14.3753 9.29154 14.392 9.20892 14.4245 9.13203C14.4722 9.01879 14.5523 8.92216 14.6547 8.85421C14.7572 8.78626 14.8773 8.75001 15.0002 8.75C15.3509 8.74997 15.6946 8.65159 15.9921 8.46605C16.2897 8.2805 16.5293 8.01522 16.6836 7.70034C16.838 7.38546 16.901 7.0336 16.8654 6.68473C16.8298 6.33586 16.6971 6.00396 16.4823 5.72673C16.2676 5.44951 15.9794 5.23806 15.6505 5.11642C15.3216 4.99477 14.9651 4.96781 14.6217 5.03858C14.2782 5.10935 13.9615 5.27503 13.7074 5.51679C13.4534 5.75855 13.2723 6.0667 13.1846 6.40625C13.1641 6.48576 13.1281 6.56045 13.0787 6.62606C13.0293 6.69166 12.9675 6.7469 12.8968 6.78861C12.8261 6.83033 12.7478 6.8577 12.6665 6.86917C12.5852 6.88064 12.5024 6.87598 12.4229 6.85547C12.3434 6.83495 12.2687 6.79897 12.2031 6.74958C12.1375 6.7002 12.0822 6.63837 12.0405 6.56764C11.9988 6.49691 11.9714 6.41865 11.96 6.33734C11.9485 6.25603 11.9532 6.17326 11.9737 6.09375C12.0954 5.6229 12.3253 5.18695 12.6451 4.82058C12.9649 4.45422 13.3658 4.16755 13.8159 3.9834C14.266 3.79924 14.7529 3.72267 15.2378 3.75979C15.7227 3.7969 16.1922 3.94668 16.609 4.19719C17.0259 4.44771 17.3785 4.79205 17.6388 5.20282C17.8991 5.61359 18.06 6.07946 18.1086 6.56334C18.1572 7.04722 18.0922 7.53577 17.9188 7.99011C17.7454 8.44446 17.4683 8.85205 17.1096 9.18047C17.9595 9.54843 18.6982 10.1324 19.2526 10.8742C19.3018 10.94 19.3376 11.0149 19.3578 11.0946C19.3781 11.1743 19.3824 11.2572 19.3706 11.3385C19.3588 11.4199 19.331 11.4981 19.2889 11.5687C19.2468 11.6393 19.1912 11.7009 19.1252 11.75ZM14.9159 16.5625C14.9611 16.6336 14.9914 16.7132 15.0051 16.7964C15.0188 16.8795 15.0155 16.9646 14.9955 17.0465C14.9754 17.1284 14.939 17.2053 14.8884 17.2728C14.8379 17.3402 14.7742 17.3967 14.7012 17.4389C14.6282 17.4811 14.5475 17.5081 14.4638 17.5182C14.3801 17.5284 14.2952 17.5215 14.2143 17.498C14.1333 17.4746 14.058 17.4349 13.9927 17.3816C13.9275 17.3282 13.8737 17.2622 13.8346 17.1875C13.4409 16.5208 12.8802 15.9683 12.2078 15.5845C11.5353 15.2007 10.7745 14.9989 10.0002 14.9989C9.22599 14.9989 8.46513 15.2007 7.79272 15.5845C7.1203 15.9683 6.55958 16.5208 6.16586 17.1875C6.12679 17.2622 6.07301 17.3282 6.00777 17.3816C5.94252 17.4349 5.86715 17.4746 5.7862 17.498C5.70524 17.5215 5.62037 17.5284 5.53669 17.5182C5.45302 17.5081 5.37226 17.4811 5.29928 17.4389C5.2263 17.3967 5.16261 17.3402 5.11204 17.2728C5.06147 17.2053 5.02506 17.1284 5.005 17.0465C4.98495 16.9646 4.98166 16.8795 4.99535 16.7964C5.00903 16.7132 5.03939 16.6336 5.08461 16.5625C5.69055 15.5214 6.61445 14.7021 7.72055 14.225C7.09815 13.7485 6.64073 13.0889 6.41258 12.3389C6.18443 11.589 6.19703 10.7864 6.44861 10.044C6.70018 9.30157 7.17808 8.65666 7.81513 8.1999C8.45219 7.74314 9.21636 7.49749 10.0002 7.49749C10.7841 7.49749 11.5483 7.74314 12.1853 8.1999C12.8224 8.65666 13.3003 9.30157 13.5519 10.044C13.8034 10.7864 13.816 11.589 13.5879 12.3389C13.3597 13.0889 12.9023 13.7485 12.2799 14.225C13.386 14.7021 14.3099 15.5214 14.9159 16.5625ZM10.0002 13.75C10.4947 13.75 10.978 13.6034 11.3892 13.3287C11.8003 13.054 12.1207 12.6635 12.3099 12.2067C12.4992 11.7499 12.5487 11.2472 12.4522 10.7623C12.3557 10.2773 12.1176 9.83186 11.768 9.48223C11.4184 9.1326 10.9729 8.8945 10.488 8.79803C10.003 8.70157 9.50034 8.75108 9.04353 8.9403C8.58671 9.12952 8.19627 9.44995 7.92156 9.86107C7.64686 10.2722 7.50024 10.7555 7.50024 11.25C7.50024 11.913 7.76363 12.5489 8.23247 13.0178C8.70131 13.4866 9.3372 13.75 10.0002 13.75ZM5.62524 9.375C5.62524 9.20924 5.55939 9.05027 5.44218 8.93306C5.32497 8.81585 5.166 8.75 5.00024 8.75C4.64956 8.74997 4.30591 8.65159 4.00834 8.46605C3.71076 8.2805 3.47119 8.01522 3.31682 7.70034C3.16246 7.38546 3.09949 7.0336 3.13508 6.68473C3.17066 6.33586 3.30337 6.00396 3.51813 5.72673C3.73289 5.44951 4.02109 5.23806 4.35 5.11642C4.67891 4.99477 5.03534 4.96781 5.3788 5.03858C5.72227 5.10935 6.039 5.27503 6.29303 5.51679C6.54706 5.75855 6.72819 6.0667 6.81586 6.40625C6.8573 6.56683 6.96083 6.70437 7.10368 6.78861C7.24653 6.87286 7.417 6.89691 7.57758 6.85547C7.73816 6.81403 7.8757 6.71049 7.95995 6.56764C8.04419 6.42479 8.06824 6.25433 8.0268 6.09375C7.90511 5.6229 7.67522 5.18695 7.3554 4.82058C7.03558 4.45422 6.63468 4.16755 6.18458 3.9834C5.73447 3.79924 5.2476 3.72267 4.7627 3.75979C4.2778 3.7969 3.80826 3.94668 3.39143 4.19719C2.9746 4.44771 2.62199 4.79205 2.36166 5.20282C2.10133 5.61359 1.94046 6.07946 1.89185 6.56334C1.84325 7.04722 1.90825 7.53577 2.08168 7.99011C2.25511 8.44446 2.53219 8.85205 2.89086 9.18047C2.04186 9.54878 1.30392 10.1327 0.750237 10.8742C0.650677 11.0068 0.607874 11.1736 0.631242 11.3377C0.654611 11.5019 0.742238 11.65 0.874846 11.7496C1.00745 11.8492 1.17418 11.892 1.33835 11.8686C1.50252 11.8452 1.65068 11.7576 1.75024 11.625C2.12695 11.1186 2.61728 10.7078 3.18177 10.4256C3.74625 10.1433 4.36912 9.99755 5.00024 10C5.166 10 5.32497 9.93415 5.44218 9.81694C5.55939 9.69973 5.62524 9.54076 5.62524 9.375Z" fill="#757575"/>
</svg>
